<svg xmlns="http://www.w3.org/2000/svg" xmlns:xlink="http://www.w3.org/1999/xlink" width="371" height="119" viewBox="0 0 371 119">
  <defs>
    <clipPath id="clip-carlo-ag_de_logo_rgb_tr">
      <rect width="371" height="119"/>
    </clipPath>
  </defs>
  <g id="carlo-ag_de_logo_rgb_tr" clipPath="url(#clip-carlo-ag_de_logo_rgb_tr)">
    <g id="carlo-ag_de_logo_rgb" transform="translate(-127.28 -219.84)">
      <g id="Gruppe_1" data-name="Gruppe 1">
        <path id="Pfad_1" data-name="Pfad 1" d="M144.05,337.83a13.434,13.434,0,0,1-5.22.86c-7.32,0-11.09-5.35-11.09-12.4s3.77-12.4,10.95-12.4a15.378,15.378,0,0,1,5.35,1l-.24,3.97a9.159,9.159,0,0,0-4.56-1.31c-3.66,0-6.81,2.49-6.81,8.74s3.14,8.74,6.81,8.74a7.527,7.527,0,0,0,4.56-1.24Z" fill="#999fa3"/>
        <path id="Pfad_2" data-name="Pfad 2" d="M152.24,321.6a12.438,12.438,0,0,1,5.63-1.31c5.53,0,6.81,2.69,6.81,7.15v7.77a22.44,22.44,0,0,0,.24,3.14h-3.87a8.716,8.716,0,0,1-.24-2.42h-.07a5.718,5.718,0,0,1-4.97,2.69,5.107,5.107,0,0,1-5.32-5.22c0-4.84,3.94-6.05,9.36-6.05h.86v-.66a3.063,3.063,0,0,0-3.32-3.39,8.217,8.217,0,0,0-4.87,1.73Zm8.43,8.04h-.38c-3.66,0-5.84.76-5.84,3.35a2.577,2.577,0,0,0,2.73,2.73c2.56,0,3.49-1.9,3.49-5.08Z" fill="#999fa3"/>
        <path id="Pfad_3" data-name="Pfad 3" d="M173.55,323.5a23.056,23.056,0,0,0-.14-2.94h3.87c.03,1.07.14,2.18.14,3.25h.07a4.971,4.971,0,0,1,4.53-3.52,5.358,5.358,0,0,1,.73.1v4.01a4.59,4.59,0,0,0-1.21-.17c-1.76,0-3.7,1.07-3.7,4.39v9.74h-4.28V323.5Z" fill="#999fa3"/>
        <path id="Pfad_4" data-name="Pfad 4" d="M190.07,312.44h4.28v25.91h-4.28Z" fill="#999fa3"/>
        <path id="Pfad_5" data-name="Pfad 5" d="M210.76,320.28c3.63,0,7.81,1.9,7.81,9.15,0,7.46-4.18,9.19-7.81,9.19s-7.84-1.73-7.84-9.19C202.92,322.18,207.13,320.28,210.76,320.28Zm0,15.31c2.76,0,3.39-3.18,3.39-6.15s-.62-6.11-3.39-6.11-3.42,3.14-3.42,6.11S207.99,335.59,210.76,335.59Z" fill="#999fa3"/>
        <path id="Pfad_6" data-name="Pfad 6" d="M240.39,314.24h7.05c4.97,0,7.25,1.87,7.25,5.94a5.384,5.384,0,0,1-4.01,5.56v.07a5.44,5.44,0,0,1,4.56,5.77c0,4.39-3.21,6.77-7.5,6.77h-7.36V314.24Zm4.29,10.08h2.28a3.364,3.364,0,0,0,3.45-3.59c0-2.04-1.45-3.25-3.56-3.25h-2.18v6.84Zm0,10.64h2.45a3.4,3.4,0,0,0,3.7-3.7c0-2.11-1.11-3.7-3.83-3.7h-2.31v7.4Z" fill="#999fa3"/>
        <path id="Pfad_7" data-name="Pfad 7" d="M276.8,337.49a13.243,13.243,0,0,1-5.32,1.14c-5.73,0-8.22-4.11-8.22-8.91,0-5.32,2.8-9.43,7.32-9.43,3.83,0,7.12,2.25,7.12,9.5v.83H267.41c0,3.04,1.21,4.87,4.53,4.87a7.026,7.026,0,0,0,4.66-1.38Zm-3.24-9.57c0-3.14-1.04-4.73-2.97-4.73-2.25,0-3.18,2.38-3.18,4.73Z" fill="#999fa3"/>
        <path id="Pfad_8" data-name="Pfad 8" d="M285.92,323.5a23.053,23.053,0,0,0-.14-2.94h3.87c.03,1.07.14,2.18.14,3.25h.07a4.971,4.971,0,0,1,4.53-3.52,5.358,5.358,0,0,1,.73.1v4.01a4.591,4.591,0,0,0-1.21-.17c-1.76,0-3.7,1.07-3.7,4.39v9.74h-4.28V323.5Z" fill="#999fa3"/>
        <path id="Pfad_9" data-name="Pfad 9" d="M302.02,323.5a23.053,23.053,0,0,0-.14-2.94h4.01c.04.9.14,1.83.14,2.73h.06a5.19,5.19,0,0,1,4.73-3.01c4.04,0,5.25,3.01,5.25,6.6v11.47h-4.28V327.68c0-2.73-.69-3.87-2.45-3.87-2.25,0-3.04,1.9-3.04,4.18v10.36h-4.28Z" fill="#999fa3"/>
        <path id="Pfad_10" data-name="Pfad 10" d="M325.58,321.6a12.438,12.438,0,0,1,5.63-1.31c5.53,0,6.81,2.69,6.81,7.15v7.77a22.445,22.445,0,0,0,.24,3.14h-3.87a8.717,8.717,0,0,1-.24-2.42h-.07a5.718,5.718,0,0,1-4.97,2.69,5.106,5.106,0,0,1-5.32-5.22c0-4.84,3.94-6.05,9.36-6.05h.86v-.66a3.063,3.063,0,0,0-3.32-3.39,8.217,8.217,0,0,0-4.87,1.73Zm8.43,8.04h-.38c-3.66,0-5.84.76-5.84,3.35a2.577,2.577,0,0,0,2.73,2.73c2.56,0,3.49-1.9,3.49-5.08Z" fill="#999fa3"/>
        <path id="Pfad_11" data-name="Pfad 11" d="M346.27,334.2a11.371,11.371,0,0,0,4.46,1.17c1.55,0,2.76-.38,2.76-1.76,0-.69-.35-1.35-1.9-2.25l-1.76-1.04c-1.8-1.07-3.76-2.21-3.76-5.01,0-2.45,2.38-5.04,6.15-5.04a14.215,14.215,0,0,1,4.46.73l-.24,3.32a9.893,9.893,0,0,0-3.77-.79c-1.73,0-2.45.66-2.45,1.73,0,.97.76,1.49,2,2.28l2.11,1.35c2.21,1.42,3.32,2.42,3.32,4.49,0,3.28-2.76,5.25-6.63,5.25a14.58,14.58,0,0,1-4.94-.86Z" fill="#999fa3"/>
        <path id="Pfad_12" data-name="Pfad 12" d="M377.67,337.9a12.173,12.173,0,0,1-4.21.73c-5.87,0-8.36-4.11-8.36-9.15,0-5.08,2.62-9.19,8.6-9.19a11.4,11.4,0,0,1,3.73.73l-.24,3.39a6.851,6.851,0,0,0-3.01-.86c-3.25,0-4.66,2.18-4.66,5.98,0,3.32,1.59,5.87,4.87,5.87a6.867,6.867,0,0,0,3.04-.86Z" fill="#999fa3"/>
        <path id="Pfad_13" data-name="Pfad 13" d="M392.42,320.28c3.63,0,7.81,1.9,7.81,9.15,0,7.46-4.18,9.19-7.81,9.19s-7.84-1.73-7.84-9.19C384.58,322.18,388.79,320.28,392.42,320.28Zm0,15.31c2.76,0,3.39-3.18,3.39-6.15s-.62-6.11-3.39-6.11-3.42,3.14-3.42,6.11S389.66,335.59,392.42,335.59Z" fill="#999fa3"/>
        <path id="Pfad_14" data-name="Pfad 14" d="M408.38,323.5a23.053,23.053,0,0,0-.14-2.94h4.01c.03.9.14,1.83.14,2.73h.06a5.19,5.19,0,0,1,4.73-3.01c4.04,0,5.25,3.01,5.25,6.6v11.47h-4.28V327.68c0-2.73-.69-3.87-2.45-3.87-2.25,0-3.04,1.9-3.04,4.18v10.36h-4.28Z" fill="#999fa3"/>
        <path id="Pfad_15" data-name="Pfad 15" d="M431.42,312.99h4.42v4.21h-4.42Zm.07,7.57h4.28v17.79h-4.28Z" fill="#999fa3"/>
        <path id="Pfad_16" data-name="Pfad 16" d="M468,332.55h-8.29l-1.73,5.8h-4.42l8.08-24.11h4.84l7.77,24.11h-4.56Zm-.93-3.39-3.04-11.26h-.07l-3.32,11.26Z" fill="#999fa3"/>
        <path id="Pfad_17" data-name="Pfad 17" d="M490.53,324.84h7.81v12.61a14.319,14.319,0,0,1-6.53,1.24c-7.74,0-11.85-5.25-11.85-12.4s4.11-12.4,11.85-12.4a15.551,15.551,0,0,1,5.87,1.04l-.24,3.97a10.812,10.812,0,0,0-5.56-1.49c-4.7,0-7.22,3.87-7.22,8.88,0,5.42,2.45,8.88,6.98,8.88a7.129,7.129,0,0,0,2.56-.45v-6.49h-3.66v-3.39Z" fill="#999fa3"/>
      </g>
      <g id="Gruppe_2" data-name="Gruppe 2">
        <path id="Pfad_18" data-name="Pfad 18" d="M210.93,282.18h76.12V245.25c0-13.58-15.24-11.83-17.94-11.96-1.25-.06-58.18,0-58.18,0v21.55h53.01v4.87H210.93v22.47Z" fill="#003da5"/>
        <path id="Pfad_19" data-name="Pfad 19" d="M374.33,219.84h25.79v62.32H374.33Z" fill="#003da5"/>
        <path id="Pfad_20" data-name="Pfad 20" d="M361.78,233.29c6.52,0,8.6,2.86,8.6,7.32v20.77H345.94v-6.57H317.41v27.35H292.92V233.29h68.86Z" fill="#003da5"/>
        <path id="Pfad_21" data-name="Pfad 21" d="M153.35,233.28l53.31.01v21.55H154.18v4.86h52.48v22.48H153.45c-14.99,0-26.17-11.26-26.17-24.23C127.29,243.79,139.95,233.28,153.35,233.28Z" fill="#003da5"/>
        <path id="Pfad_22" data-name="Pfad 22" d="M471.4,233.33l-21.11-.04-20.22.02c-14.38,0-27.41,8.8-27.41,24.32,0,15.63,13.03,24.52,28.24,24.52h38.79c15.2,0,28.23-8.89,28.23-24.52C497.91,242.1,484.88,233.3,471.4,233.33Zm-.73,26.36H429.88v-4.88h40.79Z" fill="#003da5" fillRule="evenodd"/>
      </g>
    </g>
  </g>
</svg>
